<svg xmlns="http://www.w3.org/2000/svg" data-name="Layer 1" viewBox="0 0 5 6.25" x="0px" y="0px"><title>icon</title><g><path d="M.67622,2.26315a.06782.06782,0,0,0,.028.02225.20985.20985,0,0,0,.04191.01455.34323.34323,0,0,0,.04414.00866c.02081.00262.04178.0022.06269.00345a.32605.32605,0,0,1,.06544.01143.16727.16727,0,0,1,.06026.03006c.01421.01142.02689.02476.04013.0372a.07328.07328,0,0,0,.01909.01286.084.084,0,0,0,.02738.00557.12639.12639,0,0,0,.05181-.00471c.00735-.00273.01233.00971.00514.01264L1.096,2.43a.1117.1117,0,0,1-.03224.0095.09735.09735,0,0,1-.064-.0112A.264.264,0,0,1,.955,2.39174L.95086,2.38823.9474,2.38579.93523,2.37844A.15693.15693,0,0,0,.908,2.36789L.87879,2.361.84636,2.35621C.82577,2.35266.80529,2.34855.78493,2.34412c-.0156-.0034-.03087-.00835-.04621-.01262a.27717.27717,0,0,1-.04586-.0168A.059.059,0,0,1,.655,2.26857C.6536,2.25671.671,2.2542.67622,2.26315Z" fill="#000000"/><g><g><path d="M2.91921,2.04019a.135.135,0,0,1-.04547.02131c-.016.00471-.03217.00893-.04786.01452V.4633h.12278V2.01851C2.9383,2.02489,2.92892,2.03286,2.91921,2.04019Z" fill="#000000"/><path d="M2.8952,3.02277c-.02291.00382-.04628.00337-.06932.00534V2.48064c.02424-.01736.05006-.03288.07369-.05087a.29649.29649,0,0,0,.04909-.04521v.62588C2.93073,3.01317,2.91326,3.01968,2.8952,3.02277Z" fill="#000000"/><path d="M2.89135,3.19722c.01913.001.03822.00026.05731-.00055v1.34H2.82587V3.18345A.18084.18084,0,0,0,2.89135,3.19722Z" fill="#000000"/></g><g><path d="M.73519,2.24129a.27511.27511,0,0,0,.074-.00337C.83548,2.234.86157,2.22973.888,2.22734a.94442.94442,0,0,1,.16528.00118c.05567.00468.11107.01206.16683.01628.05537.00418.11081.00691.16625.00869a2.09634,2.09634,0,0,0,.32878-.00791c.054-.00678.108-.01452.16237-.01974a1.61181,1.61181,0,0,1,.16473-.00652c.0646.00034.12881.00518.19334.0099.03262.00238.06534.00374.098.00613a.72956.72956,0,0,1,.09117.00948.394.394,0,0,1,.12175-.09647A.70292.70292,0,0,1,2.65406,2.106c.03641-.01147.07366-.01989.11062-.02966a.76856.76856,0,0,0,.13654-.04668.4277.4277,0,0,0,.06285-.037l.02217-.01754a.245.245,0,0,1-.06829-.04968.28053.28053,0,0,1-.0625-.089.83525.83525,0,0,1-.03618-.11088c-.00777-.03007-.023-.07494-.06078-.07389-.00638.00015-.0078-.01031-.00139-.01133a.06806.06806,0,0,1,.04906.0084.15272.15272,0,0,1,.03745.04264.38868.38868,0,0,1,.04745.10848l.009.02579.00184.00488.00288.0073.00129.00346.00265.00579a.54319.54319,0,0,0,.02557.05008.1993.1993,0,0,0,.06518.06628l.02618-.0228c.0322-.0278.01994.0112-.00764.03866a.301.301,0,0,1-.02466.02139.41943.41943,0,0,1-.048.03307.631.631,0,0,1-.10418.04693c-.07152.02634-.14628.04328-.218.06918a.50392.50392,0,0,0-.10068.0488l-.0099.00663-.00337.00238-.00055.00044-.00055.00045-.01443.01167a.37425.37425,0,0,0-.02731.02586c-.00663.00691-.04246.05314-.04725.06055l-.00984.01639-.00456.00831-.0001.0002-.00146.00322-.00165.00388a.2883.2883,0,0,0-.0123.03568l-.0022.0085c.00172-.00678-.00026.00239-.00116.00679L2.385,2.39526l-.00081.00959L2.384,2.40621c-.00126.00781-.00133.0087-.00013.0027l-.00019.004-.00016.008.00035.00791.00026.00393.00016.00264q-.00141-.01061.00026.00257l.0001.001.00006.00053.00139.00741.00453.01553.00029.00091.00023.00039.00333.00667.00392.00644.001.00134.00084.00115.0111.01142.00181.00155.00026.0002.00844.00574.01353.00736.00751.00314.01188.004a.36614.36614,0,0,0,.11359.015.5305.5305,0,0,0,.12648-.014A.58568.58568,0,0,0,2.757,2.49626a.36979.36979,0,0,0,.05424-.02281.65688.65688,0,0,0,.17357-.16052c.02971-.03317.06075-.06529.0934-.09552s.06806-.0577.10279-.084a.49168.49168,0,0,0,.041-.03332l.008-.00816.00362-.00414.00159-.003.00359-.00623.00078-.00183.002-.00639.00032-.00107.00019-.00414-.00006-.00526V2.05979l0-.00016a.14969.14969,0,0,0-.00612-.025l-.00207-.00461-.00256-.00638L3.23116,2.023l-.006-.01388-.01457-.02976a.45573.45573,0,0,0-.032-.056c-.01239-.01724-.02563-.0339-.039-.05036-.02738-.03358-.05641-.06581-.08492-.09838-.02965-.03379-.05874-.06791-.08906-.10109-.03159-.03452-.06428-.06808-.09758-.101q-.045-.04442-.0913-.08732L2.72966,1.4409C2.7138,1.42607,2.6994,1.41013,2.685,1.394c-.005-.00565.00181-.01521.00851-.01069a.984.984,0,0,1,.10936.08829q.052.04716.10243.09607c.06531.0636.12651.13067.188.19784.02935.0321.05806.06492.08531.09887.01369.017.02628.03471.04007.0516a.65934.65934,0,0,1,.03994.05384.27386.27386,0,0,1,.03155.05845A.072.072,0,0,1,3.2943,2.057L3.292,2.07265l-.00129.00493-.00181.00476-.00065.00154a.18963.18963,0,0,1-.07414.075c-.03463.02544-.06858.051-.10068.0795a1.17966,1.17966,0,0,0-.09454.09418c-.02767.03083-.05359.06322-.08233.09309a.54046.54046,0,0,1-.067.05966.17392.17392,0,0,1,.04434.02456.23839.23839,0,0,1,.03534.03335c.01217.0139.02181.02918.033.04385a.15564.15564,0,0,0,.0913.05714c.02145.00447.04346.00369.06508.007a.369.369,0,0,1,.06525.01673.14.14,0,0,1,.07385.05647.19788.19788,0,0,1,.0266.08654.74092.74092,0,0,1,.0023.09051.54349.54349,0,0,0,.00511.08508.32379.32379,0,0,0,.00793.03723c.00265.00955-.00981.01306-.015.006a.16931.16931,0,0,1-.02635-.07829c-.00446-.03076-.00628-.06181-.00929-.0927l-.0011-.01092c-.00007-.0005-.00084-.00651-.0002-.00194l-.001-.00892-.0011-.01076-.0001-.00089-.00007-.00084-.001-.007a.35083.35083,0,0,0-.00838-.04215l-.00631-.01885L3.24815,2.752l-.0001-.00028-.00042-.001-.00492-.01022a.107.107,0,0,0-.022-.031.21971.21971,0,0,0-.10916-.04209c-.02013-.00466-.04075-.00513-.06084-.01013a.16368.16368,0,0,1-.0501-.022.41457.41457,0,0,1-.0455-.035c-.01333-.0116-.02531-.02437-.038-.03662L2.90086,2.5488l-.004-.00343L2.896,2.54474,2.8952,2.54408,2.88529,2.537,2.86688,2.5266l-.00327-.00149-.004-.00163L2.84642,2.519,2.82723,2.5126a.5184.5184,0,0,1-.10068.04021.64321.64321,0,0,1-.13276.02422.51532.51532,0,0,1-.13162-.00591A.19152.19152,0,0,1,2.3757,2.5332a.12782.12782,0,0,1-.03887-.13826l.00563-.016c.00074-.00189.00573-.01549.0034-.008l.0056-.01311a.29865.29865,0,0,1,.01748-.03343l.00683-.01011.00058-.00188.00236-.00408.00935-.01492a.81908.81908,0,0,1-.12071-.00254c-.0546-.00338-.10907-.00788-.16357-.01239-.05486-.00453-.10961-.00937-.16473-.00989-.054-.00048-.108.00311-.16191.00709s-.10777.00833-.16175.01049c-.05537.00218-.11084.00034-.16622-.00058C1.338,2.28368,1.227,2.27818,1.1163,2.26648a1.38261,1.38261,0,0,0-.19564-.01179.78828.78828,0,0,0-.09489.01042.32763.32763,0,0,1-.091.00571.015.015,0,0,1-.01453-.015A.01474.01474,0,0,1,.73519,2.24129Z" fill="#000000"/><path d="M3.23527,2.08479l-.00081.0016Z" fill="#000000"/></g><path d="M2.62833,1.30109c.00282-.00686.01369-.00406.01136.00332a.17021.17021,0,0,0,.01227.11079.31445.31445,0,0,0,.02295.05047.14721.14721,0,0,1,.021.05981c.00233.02168.00013.04345.00042.06518l.00061.01806.00029.00893c.00013.00212.00107.01136.00055.00723l.00117.01115.00023.00222.0001.00052.00145.00744.001.00345.00019.0005.00285.00666c-.0024-.0061-.00042-.00125.00023.00008l.001.00173.0032.00479.00039.00053.00026.00035.00191.00218.00035.00036.00013.00008h.00032L2.718,1.66675c.00812-.00067.00939.01231.00168.01408L2.70788,1.684a.02906.02906,0,0,1-.02042.00125.05471.05471,0,0,1-.02961-.0256.15219.15219,0,0,1-.01719-.08011c-.00006-.01086-.0002-.0219.00078-.03274.00117-.01257.00084-.025.001-.03757a.24767.24767,0,0,0-.00421-.05274c-.00388-.01853-.011-.03628-.0156-.05471A.16041.16041,0,0,1,2.62833,1.30109Z" fill="#000000"/><path d="M1.152,2.36938l.01447-.00561a.05977.05977,0,0,1,.01735-.00089.13215.13215,0,0,1,.01838.00045l.01861.00356a.62.62,0,0,1,.06625.019,1.08662,1.08662,0,0,0,.13324.03955.67731.67731,0,0,0,.1402.01008c.0478-.00071.09554-.00445.143-.00945.04774-.005.09557-.00971.14347-.01225a.81613.81613,0,0,1,.13324.00421.72249.72249,0,0,1,.1314.02586.66013.66013,0,0,1,.12088.05236.20849.20849,0,0,1,.05075.03937.12173.12173,0,0,1,.00738-.0795.38432.38432,0,0,1,.088-.13575.51328.51328,0,0,1-.02573.05338.39509.39509,0,0,0-.01845.044l-.00634.02251-.002.01042-.00052.004L2.32476,2.463a.24659.24659,0,0,0,.0023.05484l.00537.02529.00353.01123.00207.00542.00181.00395.01045.01948.00608.009.00032.00052.00087.00115.00456.00553.01479.0154.00806.00711.00246.002.00489.00366a.2737.2737,0,0,0,.039.0238.32649.32649,0,0,0,.04023.01761c.015.00568.03026.01071.0455.01547.03262.01023.06586.01833.09774.03063a.52829.52829,0,0,1,.11308.06044.583.583,0,0,1,.05191.04109.3.3,0,0,1,.04249.04879c.01563.0212.02858.04416.04214.06675l.02075.03329.01078.01613.00777.0155q.05-.00158.09958-.0001.03835.00126.07667.004c.026.00185.05185.00617.0778.00835.00874.0007.00867.01429-.0002.01372-.024-.00149-.04812-.00081-.0722-.00029-.02372.00047-.04744.00024-.07114.001-.04676.00144-.09359.00432-.14007.00859a2.1643,2.1643,0,0,0-.27522.04508c-.02343.00523-.04693.00971-.07036.015l-.03379.007-.03628.00932c-.04731.01228-.09427.026-.141.04-.04107.01243-.08272.02117-.12444.03142a.42774.42774,0,0,0-.05974.01877.48769.48769,0,0,0-.05855.03155q-.02981.01726-.06058.03259a.32036.32036,0,0,1-.06661.02736A.01029.01029,0,0,1,1.94,3.27163a.63117.63117,0,0,1,.061-.03184c.02049-.01034.04071-.02123.06068-.03251a.53974.53974,0,0,1,.05887-.03092.47758.47758,0,0,1,.06113-.01943c.04127-.01052.08327-.0177.12366-.03105.04641-.01537.09392-.0278.14085-.04139l.0333-.00951.0357-.01118c.023-.00671.04576-.0144.0689-.02058.04576-.012.09194-.02152.13865-.029a1.43112,1.43112,0,0,1,.15405-.016A.23528.23528,0,0,1,2.849,2.965c-.01275-.01689-.02489-.03423-.03745-.05123-.01184-.016-.02369-.03191-.037-.04662a.37174.37174,0,0,0-.04489-.04089.51772.51772,0,0,0-.10735-.06557.75279.75279,0,0,0-.09975-.03327A.43768.43768,0,0,1,2.351,2.64478L2.34285,2.64l-.02333-.01977-.04217-.03892a.53736.53736,0,0,0-.042-.03477.34829.34829,0,0,0-.05375-.03.74442.74442,0,0,0-.11949-.04366A.77307.77307,0,0,0,1.93536,2.449a1.269,1.269,0,0,0-.28095.011,1.24005,1.24005,0,0,1-.14282.00992.60577.60577,0,0,1-.14383-.01862c-.03644-.00888-.07149-.02258-.10716-.0341a.53158.53158,0,0,0-.0557-.0151.21143.21143,0,0,1-.026-.00631l-.01282-.00265-.01424-.00646A.01.01,0,0,1,1.152,2.36938Z" fill="#000000"/><path d="M2.18932,3.21748c.02317-.00076.04644,0,.06958-.00052.02369-.00047.04741-.00157.071-.00288a1.084,1.084,0,0,0,.139-.0162c.04667-.00871.09224-.022.139-.02994a.48879.48879,0,0,1,.07172-.0072c.02466-.00052.04932-.0016.074-.0016.09661,0,.19276.00565.2891.01317a.7617.7617,0,0,0,.13282.00081l.00741-.00107.01006-.002L3.216,3.16376a.168.168,0,0,0,.04146-.018l.01683-.00832.01421-.01167a.05787.05787,0,0,0,.01774-.0301c.00145-.00748.014-.00557.0132.00193a.09572.09572,0,0,1-.0132.04008l-.01379.01795a.11452.11452,0,0,1-.01838.01955.30037.30037,0,0,1-.04117.02534.23772.23772,0,0,1-.045.01623.29055.29055,0,0,1-.06285.00618c-.02388.00058-.0478-.0004-.07155-.00181-.04767-.00283-.09522-.00783-.14282-.01109-.04864-.00335-.09719-.00908-.14583-.01286-.02453-.00191-.04932-.00476-.07395-.0051a.45542.45542,0,0,0-.06981.00408c-.047.00652-.09324.01806-.13971.0277a1.23236,1.23236,0,0,1-.14059.02021c-.02557.0023-.05114.00359-.0768.00409A.68872.68872,0,0,1,2.1889,3.247.01478.01478,0,0,1,2.18932,3.21748Z" fill="#000000"/><path d="M2.431,3.44332l.01133-.01054a.07112.07112,0,0,1,.01605-.00935c.01058-.00547.0221-.00926.03317-.01374.02162-.00882.04233-.019.06337-.02916a1.142,1.142,0,0,1,.12745-.05316.87832.87832,0,0,1,.1312-.034,1.18479,1.18479,0,0,1,.14017-.01408c.04786-.00262.0958-.00456.14373-.00791.02265-.00162.04534-.00414.0679-.00711a.33956.33956,0,0,0,.07185-.01608c.00767-.00277.01265.00976.00534.01316a.62373.62373,0,0,1-.12722.04646,1.00769,1.00769,0,0,1-.1378.01817l-.06822.0058c-.02385.0023-.04236.00419-.06408.00731a1.06869,1.06869,0,0,0-.133.02917,1.00728,1.00728,0,0,0-.13159.0467c-.02217.00961-.04343.021-.066.03011l-.03579.01434-.01816.00605a.11185.11185,0,0,1-.02016.002C2.4279,3.46883,2.42292,3.45108,2.431,3.44332Z" fill="#000000"/><path d="M2.24462,3.43433a.37634.37634,0,0,0,.0556-.02223c.01977-.00921.03887-.02.05787-.03071.03787-.02145.07641-.04212.11622-.05987.02178-.00971.04395-.01867.06618-.02741.01835-.00723.03592-.01518.05359-.0239A.2447.2447,0,0,1,2.70493,3.235l.01207.00177a.0059.0059,0,0,1-.00019.01131.21352.21352,0,0,0-.053.01419.52219.52219,0,0,0-.0533.02754c-.01686.00981-.03366.01955-.05113.02833-.02084.01052-.04159.02146-.06207.03277a.62206.62206,0,0,1-.23816.106l-.01171.00062A.01186.01186,0,0,1,2.24462,3.43433Z" fill="#000000"/><path d="M2.08491,3.37255c.00488-.0105.008-.02175.01282-.03234a.09143.09143,0,0,1,.02136-.02992.41974.41974,0,0,1,.06143-.041c.00657-.00429.01246.004.00958.00989a.168.168,0,0,1-.04974.04953.12173.12173,0,0,0-.01993.02526l-.02036.02778A.00886.00886,0,0,1,2.08491,3.37255Z" fill="#000000"/><path d="M1.95924,3.33888a.07515.07515,0,0,1,.02259-.02126l.02534-.01745a.34906.34906,0,0,0,.05026-.03707c.00611-.00607.01453.00311.00913.00945a.32966.32966,0,0,1-.04373.04426l-.02427.01892-.01191.00955a.05531.05531,0,0,1-.01618.00861C1.96187,3.3572,1.955,3.34582,1.95924,3.33888Z" fill="#000000"/><path d="M1.97261,3.36635a.06776.06776,0,0,1,.014-.013l.01524-.0102c.01058-.00734.02055-.0156.03081-.02336a.17213.17213,0,0,1,.06864-.03432.00549.00549,0,0,1,.00411.01.13985.13985,0,0,0-.02748.021l-.02893.027c-.00977.00913-.01981.01787-.03039.02605L2.00216,3.381a.04612.04612,0,0,1-.02168.00516A.01164.01164,0,0,1,1.97261,3.36635Z" fill="#000000"/><path d="M2.33518,3.584c.00372-.011.00557-.02248.00913-.03358a.0915.0915,0,0,1,.01793-.03212.42909.42909,0,0,1,.05644-.04762c.00605-.005.01285.00265.01068.0088a.16892.16892,0,0,1-.044.05476.12258.12258,0,0,0-.017.02728l-.01712.0299A.00888.00888,0,0,1,2.33518,3.584Z" fill="#000000"/><path d="M2.20653,3.56448a.07546.07546,0,0,1,.02013-.02361l.0232-.02018a.33933.33933,0,0,0,.04579-.04243c.00544-.00672.01482.00147.0102.00838a.32906.32906,0,0,1-.03858.04884l-.022.02151-.01074.01081a.05532.05532,0,0,1-.01518.01037C2.21119,3.58243,2.203,3.57188,2.20653,3.56448Z" fill="#000000"/><path d="M2.22288,3.59031a.06859.06859,0,0,1,.01246-.01447l.014-.01184.02806-.02663a.17174.17174,0,0,1,.06431-.04178.00548.00548,0,0,1,.00518.00951.14249.14249,0,0,0-.02488.024l-.02573.03c-.00871.01013-.01764.02-.02728.02926l-.01508.01322a.04584.04584,0,0,1-.021.00757C2.22217,3.61085,2.2176,3.59788,2.22288,3.59031Z" fill="#000000"/><path d="M3.44408,3.17776a.18767.18767,0,0,1,.0156.02547.09249.09249,0,0,0,.01832.02228.04987.04987,0,0,0,.02563.01343.08807.08807,0,0,0,.01476.00039.0534.0534,0,0,0,.01641.00042c.00841-.00267.01136.01.0034.013l-.01482.00879a.05915.05915,0,0,1-.076-.04191A.1152.1152,0,0,0,3.432,3.18677C3.42712,3.17975,3.43894,3.17088,3.44408,3.17776Z" fill="#000000"/><path d="M3.36307,3.04312l.01447.00356a.06305.06305,0,0,0,.01592.00053A.17246.17246,0,0,0,3.425,3.04214c.02081-.0051.03294-.0255.04563-.04115a.08978.08978,0,0,1,.057-.0372.04411.04411,0,0,1,.03091.01142c.00689.00561.01457.01613.02327.01838a.006.006,0,0,1-.00181.01176.04412.04412,0,0,1-.02832-.01023A.02933.02933,0,0,0,3.526,2.98547a.04881.04881,0,0,0-.02414.01955l-.02107.02819a.11027.11027,0,0,1-.025.02544.07519.07519,0,0,1-.03347.01152.1138.1138,0,0,1-.03644-.00083c-.00968-.00171-.02443-.00566-.02936-.01513A.00751.00751,0,0,1,3.36307,3.04312Z" fill="#000000"/><path d="M3.61464,3.11245a.065.065,0,0,1,.04155-.03609l.00065-.00024-.01123-.01777a.08611.08611,0,0,1-.0088-.02822.044.044,0,0,1-.00035-.01646l.00628-.01659c.00249-.0055.01065-.00218.01065.003l.00207.02327a.06794.06794,0,0,0,.0066.02152.10635.10635,0,0,0,.01748.02434c.00767-.0015.01573-.00136.02307-.00351A.00776.00776,0,0,1,3.70836,3.08L3.698,3.08711l.02793.02433a.20428.20428,0,0,1,.032.03678.178.178,0,0,1,.03013.10618.375.375,0,0,1-.03032.11055.38311.38311,0,0,0-.01489.05429l-.00068.00432-.00062.005-.0011.01482a.24883.24883,0,0,0,.00091.03472c.00424.04651.00822.08992.01586.13536a.477.477,0,0,0,.03152.11555.33066.33066,0,0,0,.05809.0869.4084.4084,0,0,0,.19525.11292.27346.27346,0,0,0,.11457.00676.2199.2199,0,0,0,.10492-.05107.14672.14672,0,0,0,.03159-.03617l.00748-.01552.00252-.00887.0009-.0044V3.81935l.00036-.00288.00029-.00874-.00013-.00437-.00026-.00265-.00421-.01746-.0013-.00361-.001-.00239-.004-.00835-.011-.0177a.307.307,0,0,0-.06084-.05965.91351.91351,0,0,0-.07813-.05212c-.015-.00918-.02971-.01916-.04524-.02733-.01392-.00738-.0012-.02833.01269-.021.02466.01308.05152.02534.07605.04018a.574.574,0,0,1,.07848.05638.15651.15651,0,0,1,.068.14677.14919.14919,0,0,1-.05741.07876.232.232,0,0,1-.11295.04834.39082.39082,0,0,1-.23-.05583.424.424,0,0,1-.1646-.14055.395.395,0,0,1-.04489-.10856,1.20073,1.20073,0,0,1-.02761-.13695.52287.52287,0,0,1-.00877-.072.26314.26314,0,0,1,.00741-.06382.36117.36117,0,0,1,.01832-.053l.01236-.02812.00185-.00424.00295-.00681L3.73671,3.276l.00515-.02035.00062-.004.00058-.0062.00052-.01479A.17609.17609,0,0,0,3.738,3.18049a.14066.14066,0,0,0-.0066-.022.07468.07468,0,0,0-.01317-.01934c-.01039-.01157-.0222-.02185-.03346-.03259l-.00621-.006L3.674,3.10371l-.01388.01253c-.00618.00563-.00618.00924-.013.01571A.01971.01971,0,0,1,3.61464,3.11245Z" fill="#000000"/><path d="M3.55962,3.66606a1.13142,1.13142,0,0,1,.05059-.2442c.00864-.02895.01841-.0577.028-.08638.00476-.01431.02977-.01217.02754.00418-.01094.07942-.03333.1567-.04709.23562-.00336.01955-.0057.03572-.00783.05751a.58987.58987,0,0,0-.00314.06049l.00084.02841.00126.01408,0,.00057.00026.00191.00133.00918a.327.327,0,0,0,.01369.05545l.00233.00639.00142.00378.00466.01047.01382.0251.00738.01118.00388.00548.00191.00253.018.02144a.42021.42021,0,0,0,.04233.04015l.00311.00254.00353.0028.01133.00851L3.7639,3.961a.66058.66058,0,0,0,.09719.05395l.00476.00194.01.00387.02249.00739a.40625.40625,0,0,0,.04592.01044l.004.00066.00084.00013.01159.00144.02547.00241c.01663.00125.03333.00152.04994.00113.01689-.00042.03366-.002.05046-.00354l.006-.00063.00068-.00008.01162-.00159L4.1309,4.034c.01644-.00332.03275-.0073.0488-.01207l.02259-.00736.01107-.00414.00123-.00047.00058-.00028.00718-.00313c-.00421.002.01227-.00484.00557-.0021l.00541-.00231.01074-.00476L4.2664,3.986l.01968-.01136.02078-.01206a.13158.13158,0,0,0,.02738-.02409c.00456-.00547.01411.00215.00977.00777l-.02754.03654a.19575.19575,0,0,1-.03366.03461.35729.35729,0,0,1-.08618.05161.48481.48481,0,0,1-.20748.03782.45241.45241,0,0,1-.10159-.01526.47409.47409,0,0,1-.09508-.03908.48876.48876,0,0,1-.18379-.15638A.36557.36557,0,0,1,3.55962,3.66606Z" fill="#000000"/><path d="M3.39068,3.67538a.5492.5492,0,0,1,.04023-.11128c.01612-.03489.03376-.06951.05253-.10311l.02867-.0534.02939-.05264A.01718.01718,0,0,1,3.561,3.34734a.01749.01749,0,0,1,.01169.02131.3248.3248,0,0,1-.01469.05655c-.00725.01963-.01618.03866-.025.05762-.01628.035-.03547.06864-.052.10358l-.00579.01247-.00171.00382L3.47162,3.607l-.011.02746a.45812.45812,0,0,0-.0167.05416l-.005.02461-.00062.0041-.00087.00691-.00136.01623c-.00062.0095-.00068.019-.00049.02856l.00075.01463.00065.0073.00055.00385a.37218.37218,0,0,0,.0112.05285l.00812.02409.00139.00355.00168.004.00615.01343a.45126.45126,0,0,0,.02505.0461.3403.3403,0,0,0,.02919.04.57253.57253,0,0,0,.16619.13154c.02437.01348.04922.02634.07453.03785.00751.00336.00191.01542-.00566.01294a.7058.7058,0,0,1-.19085-.09473.45439.45439,0,0,1-.14644-.1587.3294.3294,0,0,1-.03392-.106A.36209.36209,0,0,1,3.39068,3.67538Z" fill="#000000"/><path d="M3.21482,3.59924a.47088.47088,0,0,1,.12136-.16608c.01961-.01877.03971-.03681.06013-.05472l.03-.02727.015-.01338.01634-.01191a.01611.01611,0,0,1,.02489.01982l-.00473.00773-.00628.0134-.01816.0238-.033.03885c-.02223.02539-.04615.04936-.06913.07411-.0112.01211-.0223.02429-.03282.03707l-.00145.0018-.00223.00285-.007.00937-.01417.02071a.34749.34749,0,0,0-.02262.04167l-.00016.0005-.0022.00537-.004.01094-.00706.02453L3.255,3.67017l-.00062.00332L3.254,3.67672l-.002.02739c-.0002.009.00013.018.00078.027l.00126.0144.00078.00725.00006.00061.00058.00437a.59992.59992,0,0,0,.02913.12141.446.446,0,0,0,.02291.054.44131.44131,0,0,0,.03055.05272.37255.37255,0,0,0,.07913.08148.55211.55211,0,0,0,.06385.04076.5391.5391,0,0,0,.071.0356c.00809.00314.00479.01574-.00388.01315-.01929-.00571-.0389-.01037-.05819-.01628a.4411.4411,0,0,1-.05664-.02228.36325.36325,0,0,1-.1-.06863.38708.38708,0,0,1-.07152-.10212.60518.60518,0,0,1-.04573-.12068.52987.52987,0,0,1-.01958-.12358A.27926.27926,0,0,1,3.21482,3.59924Z" fill="#000000"/><path d="M2.98154,3.62588a.41919.41919,0,0,1,.16887-.18756c.03709-.02406.077-.04363.11573-.06484L3.31841,3.346l.02447-.01338.01194-.00731.00576-.00378.00524-.00375.01887-.01709.00433-.005L3.39088,3.293l.0035-.006.00194-.00383.00278-.00927.00007-.0002.00007-.001L3.39958,3.268V3.26329l-.0001-.00068-.0011-.00426L3.398,3.257l-.00165-.004-.00019-.00008L3.394,3.24894,3.3899,3.24538l-.01637-.00981a.35642.35642,0,0,0-.044-.01366.011.011,0,0,1,.00323-.02145.146.146,0,0,1,.04631.00968.187.187,0,0,1,.03777.02071.05578.05578,0,0,1,.02391.04253.09471.09471,0,0,1-.01783.055.28345.28345,0,0,1-.09275.08013c-.0367.02236-.07279.04608-.10919.06894-.01867.01167-.03709.02392-.055.03667l-.00378.00278-.00369.00275-.0124.00992-.02421.02152a.4305.4305,0,0,0-.03916.0416l-.0001.00007-.004.00537-.0077.01076L3.05617,3.633l-.00583.01147L3.05,3.64536l-.00181.00442L3.04,3.67622l-.00168.00812-.0013.01024a.236.236,0,0,0-.00052.02908l.00052.00692.00026.00267.00207.012.0079.03141.00939.028.00175.00437.00178.00453.00715.01587a.62868.62868,0,0,0,.0645.10754.81418.81418,0,0,0,.07858.094c.00751.00749-.00369.01752-.01146.01116-.03175-.026-.06411-.05073-.09395-.079a.539.539,0,0,1-.08165-.09753.43066.43066,0,0,1-.02971-.054.28824.28824,0,0,1-.0223-.06364A.21877.21877,0,0,1,2.98154,3.62588Z" fill="#000000"/></g></g><text x="0" y="20" fill="#000000" font-size="5px" font-weight="bold" font-family="'Helvetica Neue', Helvetica, Arial-Unicode, Arial, Sans-serif">Created by Alice Noir</text><text x="0" y="25" fill="#000000" font-size="5px" font-weight="bold" font-family="'Helvetica Neue', Helvetica, Arial-Unicode, Arial, Sans-serif">from the Noun Project</text></svg>